<mxfile host="app.diagrams.net" modified="2024-02-20T14:30:27.935Z" agent="Mozilla/5.0 (X11; Linux x86_64; rv:122.0) Gecko/20100101 Firefox/122.0" version="23.1.5" etag="oCXI7J4OqGRyBBVwAe1p" type="github">
  <diagram name="Page-1" id="aEi-h5ZiKzC88552mVBP">
    <mxGraphModel>
      <root>
        <mxCell id="0" />
        <mxCell id="1" parent="0" />
      </root>
    </mxGraphModel>
  </diagram>
</mxfile>
